<?xml version="1.0" encoding="utf-8"?>
<!-- Generator: Adobe Illustrator 24.1.2, SVG Export Plug-In . SVG Version: 6.00 Build 0)  -->
<svg version="1.1" id="Layer_1" xmlns="http://www.w3.org/2000/svg" xmlns:xlink="http://www.w3.org/1999/xlink" x="0px" y="0px"
	 width="63.83px" height="84.77px" viewBox="0 0 63.83 84.77" style="enable-background:new 0 0 63.83 84.77;" xml:space="preserve"
	>
<style type="text/css">
	.st0{fill:#FFFFFF;}
	.st1{fill:none;}
	.st2{fill:none;stroke:#575756;stroke-width:0.25;stroke-miterlimit:10;stroke-dasharray:2.005,2.005;}
	.st3{fill:none;stroke:#000000;stroke-width:0.18;stroke-miterlimit:10;}
	.st4{fill:none;stroke:#575756;stroke-width:0.25;stroke-miterlimit:10;}
	.st5{fill:none;stroke:#575756;stroke-width:0.25;stroke-miterlimit:10;stroke-dasharray:2.073,2.073;}
	.st6{fill:none;stroke:#000000;stroke-width:0.25;stroke-miterlimit:10;}
	.st7{clip-path:url(#SVGID_2_);}
	.st8{clip-path:url(#SVGID_4_);}
	.st9{clip-path:url(#SVGID_6_);}
	.st10{clip-path:url(#SVGID_8_);}
	.st11{clip-path:url(#SVGID_10_);}
	.st12{fill:none;stroke:#575756;stroke-width:0.25;stroke-miterlimit:10;stroke-dasharray:2.041,2.041;}
	.st13{fill:none;stroke:#000000;stroke-width:0.251;stroke-miterlimit:10;}
</style>
<g>
	<path d="M44.99,67.12c-0.24-0.48-0.06-0.76,0.33-0.98c0.08-0.05,0.18-0.13,0.21-0.21c0.1-0.27,0.3-0.38,0.56-0.43
		c1.75-0.33,2.89-3.63,2.68-5.13c-0.15-1.13-0.84-2.16-1.76-2.83c-0.92-0.68-2.06-1.02-3.19-1.09c-1.83-0.12-3.7,0.46-5.14,1.59
		c-1.82,1.43-2.56,3.36-2.88,5.57c-0.13,0.85-1.57,2.18-1.84,0.97c-0.02-0.12,0.13-0.54,0.12-0.72c-0.02-0.38-0.21-0.81-0.33-1.17
		c-0.25-0.77-0.57-1.52-0.95-2.23c-0.54-1.03-1.24-2.01-2.23-2.63c-0.99-0.61-2.31-0.79-3.31-0.21c-1.54,0.9-1.21,2.8-0.47,4.07
		c0.11,0.18-0.1,0.44,0.13,0.61c0.05,0.04,0.04,0.15,0.05,0.22c-0.03,0.02-0.05,0.04-0.08,0.05c-0.09-0.1-0.21-0.18-0.27-0.3
		c-0.19-0.39-0.47-0.69-0.85-0.9c-0.51-0.28-1-0.61-1.5-0.91c-0.1-0.06-0.23-0.16-0.35-0.01c0.09,0.35,0.6,0.3,0.66,0.68
		c-0.25,0.05-0.26,0.06-0.41-0.05c-2.25-1.71-6.19-2.61-8.4-0.33c-0.3,0.3-0.61,0.59-0.91,0.89c-0.07,0.06-0.15,0.11-0.25,0.2
		c-0.1-0.5,0.26-0.7,0.48-0.96c0.24-0.28,0.51-0.54,0.76-0.81L15.78,60c-0.1,0.03-0.21,0.06-0.3,0.11c-0.34,0.19-0.68,0.39-1.01,0.6
		c-1.85,1.18-2.04,3.95-1.53,5.91c0.46,1.74,1.6,3.3,3.12,4.26c-0.16-0.28-0.32-0.57-0.48-0.85c0.32,0.07,0.64,0.22,0.7,0.58
		c0.05,0.3,0.26,0.44,0.42,0.64c0.09,0.12,0.23,0.21,0.42,0.13c0.17-0.08,0.3,0.02,0.44,0.17c-0.01-0.01-0.27,0.19-0.29,0.21
		c0.05-0.05,0.28,0.35,0.3,0.4c0.07,0.22,0.1,0.49,0.06,0.71c-0.07,0.35-0.32,0.63-0.63,0.81c-0.25,0.14-0.57,0.26-0.86,0.28
		c-0.28,0.02-0.53-0.16-0.8-0.26c-0.57-0.24-1.17-0.42-1.79-0.51c-1.08-0.15-2.18-0.29-3.18,0.26c-0.84,0.47-1.43,1.49-1.14,2.41
		c0.24,0.78,1.02,1.28,1.77,1.59c1.3,0.54,2.73,0.76,4.14,0.65c0.66-0.05,1.54-0.12,2.14-0.44c0.82-0.43,0.36-0.76-0.19-1.34
		c-0.1-0.11-0.22-0.2-0.3-0.31c-0.05-0.08-0.01-0.24,0.03-0.31c0.58,0.41,1.44,0.66,2.14,0.69c0.77,0.03,1.39-0.27,2.04-0.63
		c0.07,0.51,1.13,1.11,1.61,1.26c0.85,0.27,1.77,0.35,2.65,0.29c1.6-0.11,4.13-0.88,4.94-2.41c0.13,0.02,0.22,0.07,0.33,0.15
		c1.19,0.86,2.61,1.39,4.06,1.61c0.33,0.05,4.17-0.01,4.04-0.26c-0.35-0.7-0.36-1.53-0.95-2.11c-0.11-0.11-0.2-0.28-0.03-0.42
		c0.21-0.17,0.53-0.19,0.67-0.03c0.21,0.22,0.43,0.44,0.61,0.69c1.07,1.53,3.4,2.06,5.16,2.22c1.92,0.17,3.91-0.2,5.52-1.29
		c1.31-0.88,2.39-2.4,2.05-3.94c-0.25-1.16-1.27-2.04-2.38-2.45c-1.51-0.57-3.2-0.23-4.67-0.9c-0.07-0.03-0.16-0.04-0.19-0.08
		c-0.12-0.15-0.21-0.32-0.34-0.52C44.38,67.41,44.67,67.27,44.99,67.12 M51.86,64.91c0.19-0.56,0.38-1.11,0.57-1.67
		c-0.41,0.7-0.83,1.39-1.24,2.09c0.2-0.12,0.4-0.25,0.6-0.36c-0.04,0.21-0.12,0.43-0.22,0.63c-0.2,0.36-0.21,0.38,0.15,0.61
		c0.49,0.3,1,0.56,1.47,0.88c0.48,0.33,0.91,0.73,1.36,1.1c0.03,0.02,0.04,0.07,0.08,0.18c-0.45-0.18-0.71-0.52-1.06-0.73
		c-0.28-0.16-0.54-0.32-0.85-0.38c-0.07,0.32,1.33,1.06,1.67,1.38c0.62,0.59,1.13,1.3,1.47,2.08c1.19,2.7,0.3,5.54-1.84,7.46
		c-1.7,1.51-3.97,2.27-6.24,2.4c-2.48,0.15-5.11-0.32-7.4-1.28c-0.24-0.1-0.46-0.15-0.72-0.1c-1.11,0.18-2.23,0.34-3.36,0.33
		c-0.74-0.01-1.49-0.08-2.23-0.21c-0.92-0.16-1.82-0.42-2.74-0.62c-0.12-0.03-0.3-0.03-0.37,0.04c-0.39,0.42-0.93,0.56-1.41,0.79
		c-1.4,0.67-2.95,0.99-4.5,0.96c-0.75-0.01-1.5-0.1-2.23-0.28c-0.49-0.12-1.39-0.63-1.88-0.53c-0.22,0.04-0.38-0.01-0.52-0.14
		c-0.56-0.53-1.73,0.05-2.31,0.25c-0.88,0.3-1.76,0.52-2.7,0.61c-3.1,0.32-7.24-0.43-8.74-3.53c-0.47-0.98-0.59-2.14-0.23-3.16
		c0.47-1.32,2.2-2.55,3.61-2.68c0.24-0.02,0.49,0.06,0.76-0.1c-0.05-0.1-0.07-0.19-0.13-0.27c-0.09-0.11-0.19-0.23-0.3-0.32
		c-0.64-0.5-1.05-1.19-1.43-1.88c-4.2-7.58,6.13-14.73,12.92-12.44c0.61,0.2,1.25,0.32,1.79,0.7c0.17,0.12,0.3,0.03,0.38-0.14
		c1.15-2.31,3.72-3.4,6.2-2.73c2.08,0.56,3.07,2.13,4.19,3.81c0.02,0.03,0.07,0.04,0.13,0.08c0.05-0.07,0.12-0.12,0.15-0.2
		c1.86-4.03,6.16-5.66,10.37-4.77c3.72,0.79,6.63,3.53,7.63,7.22C53.19,61.67,53.01,63.61,51.86,64.91"/>
	<path d="M16.67,37.29c0.1-0.06,0.17-0.14,0.25-0.15c0.51-0.07,1.02-0.01,1.59,0.07C18.13,37.46,17.05,37.5,16.67,37.29
		 M59.36,42.84c-0.17,0.04-0.33,0.09-0.49,0.12c-0.58,0.12-0.78,0.14-1.11-0.34c0.49-0.4,0.46-1.04,1.04-1.39
		c-0.18-0.15-0.05-0.44,0.06-0.65c0.39-0.73,0.66-2.75-0.62-2.66c-0.2,0.01-0.42,0.03-0.61-0.02c-0.65-0.19-1.28-0.41-1.92-0.62
		c-0.01-0.01-0.02-0.05-0.03-0.1c0.14-0.04,0.27-0.08,0.41-0.13c0.34-0.11,0.34-0.29,0.06-0.45c-0.26-0.15-0.87-0.05-1.16-0.05
		c-0.89-0.02-1.77-0.04-2.66-0.05c-5.17-0.08-10.31,0.3-15.44,0.27c-5.52-0.03-11.04-0.06-16.57-0.09
		c-2.14-0.01-4.27-0.02-6.41-0.04c-0.97,0-2.36-0.28-3.29-0.02c-1.12,0.31,0.15,0.36,0.69,0.36c0.38,0,0.77-0.06,1.14,0.02
		c0.51,0.11,1.01,0.06,1.51,0.08c0.67,0.02,1.36-0.02,2.02,0.05c0.31,0.04,0.28,0.22-0.01,0.26c-0.36,0.05-0.74,0.02-1.11,0.03
		c-1.49,0.04-2.99,0.12-4.49,0.14C9.91,37.56,9.42,37.59,9,37.81c-0.43,0.22-0.9,0.4-1.32,0.65c-0.28,0.17-0.54,0.36-0.76,0.61
		c-0.45,0.52-0.25,0.82-0.41,1.43c-0.05,0.18-0.15,0.34-0.2,0.53c-0.15,0.66,0.39,1.89,0.88,2.32c0.06,0.05,0.12,0.11,0.2,0.14
		c0.06,0.02,0.12,0.04,0.18,0.05c0.26,0.06,1.3,0.03,1.23,0.38c-0.33,0.09-0.91-0.04-1,0.42c0.17,0.04,0.35,0.01,0.52-0.01
		c0.98-0.14,1.97-0.23,2.93-0.38c0.08-0.01,0.15-0.06,0.22-0.09c-0.01-0.03-0.01-0.06-0.01-0.09c-0.02-0.1-1.79,0.07-1.96,0.08
		c1.76-0.84,4.5-0.77,6.44-0.66c-0.26,0.13-0.51,0.25-0.77,0.38c1.11-0.12,2.21-0.24,3.32-0.36c-0.22-0.06-0.44-0.11-0.66-0.17
		c0.79-0.03,1.58-0.07,2.37-0.1c-0.26,0.08-0.51,0.16-0.77,0.23c11-0.25,22.02-0.13,33.01,0.37c1.1,0.05,2.54,0.38,3.61,0.13
		c0.3-0.07,0.53-0.27,0.86-0.33c0.52-0.09,1.11,0,1.65-0.03c0.23-0.01,0.46-0.08,0.67-0.16c0.08-0.03,0.12-0.15,0.19-0.23
		C59.4,42.9,59.38,42.87,59.36,42.84"/>
	<path d="M33.72,14.83c-0.03-0.02-0.06-0.04-0.08-0.07c-0.01-0.01,0.03-0.06,0.03-0.06c0.03,0.01,0.06,0.03,0.09,0.05
		C33.75,14.78,33.73,14.81,33.72,14.83"/>
	<path d="M37.35,27.46c0.01,0.14-0.01,0.28-0.06,0.41c-0.43,1.11-2.63,0.58-3.56,0.66c-0.92,0.07-1.83,0.22-2.75,0.29
		c-0.81,0.06-1.79-0.16-2.57,0.04c-0.21-0.24-0.5-0.4-0.81-0.44c0.15-0.02,0.23-0.18,0.23-0.33c0-0.15-0.05-0.29-0.06-0.44
		c-0.02-0.41,0.33-0.75,0.67-0.98c1.8-1.25,1.73-3.76,1.63-5.74c-0.01-0.17-0.08-3.16,0.11-3.01c-0.29-0.22-0.64-0.06-0.91,0.15
		c-1.63,1.28-3.32,2.91-5.42,3.46c-0.31,0.08-0.73-0.08-0.97-0.28c-0.54-0.45,0.14-1.22-0.5-1.75c-0.1-0.09-0.18-0.23-0.24-0.36
		c-0.13-0.29-0.04-0.48,0.26-0.58c0.79-0.27,1.56-0.4,2.06-1.16c-0.01,0.01-0.15,0-0.17,0c-0.06,0-0.12,0-0.18,0
		c-0.11,0-0.37,0.05-0.38,0.02c-0.02-0.03,0.23-0.14,0.32-0.2c0.1-0.06,0.2-0.12,0.3-0.18c0.2-0.12,0.4-0.25,0.6-0.38
		c2.1-1.4,3.98-3.1,5.75-4.9c1.66-1.68,3.57-3.45,4.94-5.37c0.3-0.42,0.82-0.77,1.36-0.68c0.06,0.01,0.11,0.02,0.16,0.03
		c0.6,0.16,0.28,0.59,0.4,1.09c0.26,1.09-0.37,2.75-0.57,3.82c-0.27,1.43-0.5,2.86-0.69,4.3c-0.25,1.9-0.43,3.81-0.54,5.72
		c-0.1,1.79-0.27,3.46,0.52,5.13c0.05,0.11,0.15,0.22,0.26,0.29C36.91,26.35,37.31,26.93,37.35,27.46"/>
</g>
</svg>
