<svg xmlns="http://www.w3.org/2000/svg" width="20.24mm" height="16.87mm" viewBox="0 0 57.36 47.83"><defs><style>.a{fill:#1d1d1b;}</style></defs><path class="a" d="M41.72,23a.65.65,0,0,1,.33-1,.47.47,0,0,0,.21-.21.66.66,0,0,1,.56-.43c1.74-.32,2.88-3.62,2.68-5.13a4.33,4.33,0,0,0-1.76-2.83,6.09,6.09,0,0,0-3.2-1.1,7.62,7.62,0,0,0-5.14,1.6,8.07,8.07,0,0,0-2.88,5.57c-.13.85-1.57,2.18-1.84,1,0-.11.13-.54.12-.72a5.37,5.37,0,0,0-.33-1.17,13.71,13.71,0,0,0-.95-2.23,6.71,6.71,0,0,0-2.23-2.63,3.28,3.28,0,0,0-3.31-.2c-1.54.89-1.21,2.8-.47,4.07.11.18-.09.44.13.61.05,0,0,.15.05.22l-.08.06a1.88,1.88,0,0,1-.27-.3,2,2,0,0,0-.85-.9c-.51-.29-1-.61-1.51-.91-.1-.06-.22-.17-.35,0,.09.35.6.3.66.68-.25.05-.26.06-.41-.05-2.25-1.71-6.19-2.61-8.4-.33l-.92.89a2.26,2.26,0,0,1-.25.19c-.1-.5.26-.7.49-1s.5-.54.76-.8l-.05-.08a1.54,1.54,0,0,0-.3.11q-.51.28-1,.6c-1.85,1.19-2,3.95-1.53,5.91a7.29,7.29,0,0,0,3.12,4.25l-.47-.85a.8.8,0,0,1,.7.58c.05.3.26.44.42.64a.33.33,0,0,0,.42.13c.17-.08.31,0,.44.17a2.32,2.32,0,0,0-.29.21c.05,0,.28.35.3.4a1.54,1.54,0,0,1,.06.71,1.28,1.28,0,0,1-.63.81,2.18,2.18,0,0,1-.86.28,1.88,1.88,0,0,1-.8-.26,7.34,7.34,0,0,0-1.79-.51,5,5,0,0,0-3.18.27A2.19,2.19,0,0,0,6,31.76a2.91,2.91,0,0,0,1.78,1.59,9,9,0,0,0,4.13.65A6.19,6.19,0,0,0,14,33.56c.83-.43.36-.76-.18-1.34-.1-.11-.23-.2-.31-.31a.4.4,0,0,1,0-.32,4.3,4.3,0,0,0,2.14.69,3.72,3.72,0,0,0,2-.63c.07.51,1.14,1.11,1.61,1.26A7.21,7.21,0,0,0,22,33.2c1.6-.12,4.14-.88,4.95-2.41a.62.62,0,0,1,.33.15,9.33,9.33,0,0,0,4.06,1.61c.33.05,4.16,0,4-.26-.35-.7-.36-1.53-1-2.11-.11-.11-.2-.28,0-.42a.53.53,0,0,1,.67,0,6.44,6.44,0,0,1,.6.69c1.08,1.53,3.41,2.07,5.16,2.22a8.53,8.53,0,0,0,5.53-1.28c1.3-.88,2.38-2.4,2-3.94A3.66,3.66,0,0,0,46,25c-1.51-.56-3.2-.22-4.68-.9-.06,0-.15,0-.19-.08s-.21-.32-.34-.52l.91-.43m6.87-2.21.57-1.68-1.24,2.09.6-.35a1.77,1.77,0,0,1-.22.62c-.2.37-.21.38.16.61s1,.56,1.46.89.92.72,1.37,1.09c0,0,0,.08.08.18a6.79,6.79,0,0,1-1.06-.73,2.76,2.76,0,0,0-.86-.38c-.07.32,1.34,1.06,1.67,1.38a6.64,6.64,0,0,1,1.48,2.08,6.37,6.37,0,0,1-1.85,7.45,10.25,10.25,0,0,1-6.24,2.41,17,17,0,0,1-7.39-1.28,1.27,1.27,0,0,0-.72-.1,18.93,18.93,0,0,1-3.36.32,13.78,13.78,0,0,1-2.22-.2c-.92-.16-1.83-.42-2.74-.62a.46.46,0,0,0-.37,0,4.27,4.27,0,0,1-1.41.79,10.24,10.24,0,0,1-4.5,1,10.38,10.38,0,0,1-2.22-.28c-.49-.12-1.39-.62-1.89-.53a.57.57,0,0,1-.52-.14c-.56-.53-1.73,0-2.31.25a11.89,11.89,0,0,1-2.7.62c-3.1.31-7.23-.43-8.74-3.53a4.21,4.21,0,0,1-.23-3.17A4.77,4.77,0,0,1,6.8,26.92c.24,0,.5.07.76-.09a1.36,1.36,0,0,0-.13-.27,2.27,2.27,0,0,0-.3-.32A5.91,5.91,0,0,1,5.7,24.37C1.5,16.79,11.83,9.64,18.62,11.93a6.53,6.53,0,0,1,1.79.7c.17.12.3,0,.39-.15A5.28,5.28,0,0,1,27,9.76c2.09.56,3.07,2.12,4.2,3.8,0,0,.07,0,.13.08a1.25,1.25,0,0,0,.15-.19c1.86-4,6.16-5.66,10.37-4.77a10,10,0,0,1,7.63,7.22,5.36,5.36,0,0,1-.88,4.91"/><path class="a" d="M14.49,34.34a2.15,2.15,0,0,1,.19-.22c.45-.35.94-.65,1.48-1a6.26,6.26,0,0,1-1.67,1.21M55.31,9.17l-.42.37c-.5.42-.67.55-1.11.57.34-.47.13-.7.57-1.21-.21.06-.17-.14-.12-.29.16-.54-.15-1.51-1.3-.65a6.27,6.27,0,0,1-.57.38l-1.94,1-.05,0L50.71,9c.28-.27.24-.34-.07-.22a7.8,7.8,0,0,0-1.08.72L47.1,11.18c-4.78,3.28-9.41,6.73-14.14,10L17.68,31.76l-5.91,4.09c-.89.62-2.25,1.41-3,2.1-1,.84.24,0,.73-.3s.69-.51,1.06-.72.94-.62,1.41-.94c.62-.42,1.25-.88,1.88-1.27.29-.19.31-.09,0,.11s-.68.48-1,.72c-1.36,1-2.72,2-4.09,2.93a7.31,7.31,0,0,0-1.2,1c-.34.36-.72.74-1,1.1a4.71,4.71,0,0,0-.54.73c-.27.49,0,.48,0,.83,0,.1,0,.23,0,.33,0,.35.88.49,1.45.35l.22-.07.18-.1c.26-.15,1.2-.82,1.24-.64-.28.25-.85.57-.8.81a5.09,5.09,0,0,0,.47-.34c.86-.68,1.75-1.35,2.6-2,.06,0,.12-.12.18-.18l0,0S9.85,41.4,9.7,41.51a37.38,37.38,0,0,1,5.75-4.39l-.61.65,3-2.27-.66.35L19.3,34.3l-.65.58q15.09-10.71,30.49-21a37.88,37.88,0,0,0,3.36-2.26c.26-.23.42-.45.7-.68.46-.37,1-.72,1.51-1.07a5.55,5.55,0,0,0,.58-.49.58.58,0,0,0,.1-.21h-.08"/><path class="a" d="M16.34,11.2a1.61,1.61,0,0,1,.23.12,14.27,14.27,0,0,1,1.16,1.17,5.34,5.34,0,0,1-1.39-1.29M46.26,43.94c-.14-.1-.28-.2-.41-.31-.48-.38-.63-.51-.71-.92.5.21.7,0,1.25.25-.08-.18.11-.19.27-.19.54,0,1.44-.5.45-1.39a4.62,4.62,0,0,1-.44-.45c-.42-.53-.82-1.07-1.22-1.6a.07.07,0,0,1,0-.06l.35.25c.29.2.35.14.2-.12a6.88,6.88,0,0,0-.85-.86l-2-1.93c-3.83-3.75-7.79-7.32-11.61-11l-12.32-12L14.5,9A30.29,30.29,0,0,0,12.05,6.6c-.94-.7,0,.24.39.62a11,11,0,0,1,.84.83c.34.41.74.75,1.11,1.12s1,1,1.49,1.48c.22.23.13.27-.1.08s-.56-.53-.84-.79L11.55,6.76a6.24,6.24,0,0,0-1.11-.91c-.4-.23-.82-.5-1.21-.71a3.7,3.7,0,0,0-.78-.34c-.51-.13-.47.12-.8.22-.1,0-.23,0-.33,0C7,5.19,7,6,7.18,6.53a1.74,1.74,0,0,0,.1.19,1.58,1.58,0,0,0,.12.15c.17.21.95,1,.79,1-.28-.21-.67-.67-.89-.57a3.46,3.46,0,0,0,.39.37c.77.65,1.54,1.33,2.32,2a1.33,1.33,0,0,0,.19.14s0,0,0-.05S8.86,8.5,8.73,8.38a30.81,30.81,0,0,1,5,4.4l-.71-.42,2.6,2.27-.43-.54L17,15.76l-.66-.47Q28.81,27.05,40.86,39.21a30.12,30.12,0,0,0,2.65,2.65c.25.2.49.29.75.5.42.35.83.81,1.24,1.18a5.46,5.46,0,0,0,.55.43c.07.05.15,0,.22.05a.22.22,0,0,1,0-.08"/></svg>